<svg xmlns="http://www.w3.org/2000/svg" viewBox="0 0 48 48" role="img" aria-hidden="true">
  <path fill="#fff" d="M10 3h19l9 9v33H10z"/>
  <path fill="#d32f2f" d="M29 3v10h9zm-14 21h18v14H15z"/>
  <path fill="#fff" d="M18 28h3.3c2.3 0 3.7 1.2 3.7 3.2 0 2.1-1.5 3.3-3.8 3.3h-1V37H18zm2.2 1.8v2.9h.9c1.1 0 1.7-.5 1.7-1.5s-.6-1.4-1.7-1.4zm5.8-1.8h3.2c2.8 0 4.8 1.5 4.8 4.5S32 37 29.2 37H26zm2.2 1.9v5.2h.8c1.7 0 2.7-.8 2.7-2.6 0-1.8-1-2.6-2.7-2.6z"/>
  <path fill="none" stroke="#b71c1c" stroke-width="2" d="M10 3h19l9 9v33H10z"/>
</svg>
