<?xml version="1.0" encoding="utf-8"?><!-- Uploaded to: SVG Repo, www.svgrepo.com, Generator: SVG Repo Mixer Tools -->
<svg fill="#000000" width="800px" height="800px" viewBox="0 0 1000 1000" xmlns="http://www.w3.org/2000/svg"><path d="M790 166H616q-13-36-45-59.5T499 83t-72 23.5-45 59.5H208q-34 0-58.5 24.5T125 250v582q0 34 24.5 58.5T208 915h582q34 0 58.5-24.5T873 832V250q0-35-24.5-59.5T790 166zm-291 0q17 0 29.5 12.5T541 208t-12.5 29-29.5 12-29.5-12-12.5-29 12.5-29.5T499 166zm83 583H291v-84h291v84zm125-167H291v-83h416v83zm0-166H291v-83h416v83z"/></svg>